<svg viewBox="0 0 28 24" fill="#FFF" xmlns="http://www.w3.org/2000/svg">
<g filter="url(#filter0_d_175_862)">
<path d="M15.951 2.71645L16.1333 2.88645L16.8521 3.6052C17.0989 3.85092 17.4228 4.00242 17.7673 4.03646L17.916 4.04378H18.944C20.5478 4.04378 21.8592 5.29795 21.9509 6.87883L21.956 7.05578V8.08278C21.956 8.43258 22.0766 8.76886 22.2942 9.03624L22.3933 9.14645L23.1121 9.86525C24.2436 10.9917 24.2942 12.7929 23.2576 13.98L23.1223 14.1251L22.3939 14.8535C22.149 15.099 21.9974 15.4231 21.9633 15.7672L21.956 15.9158V16.9448C21.956 18.5485 20.7019 19.8591 19.1209 19.9507L18.944 19.9558H17.916C17.5674 19.9558 17.2307 20.0769 16.9632 20.2951L16.8529 20.3945L16.1351 21.1113C15.0099 22.2442 13.2073 22.2944 12.0198 21.2574L11.8657 21.1131L11.1485 20.396C10.9001 20.1494 10.5757 19.9973 10.2322 19.9631L10.084 19.9558H9.05498C7.45185 19.9558 6.1407 18.7023 6.0491 17.1217L6.04398 16.9448V15.9158C6.04398 15.5678 5.92268 15.2308 5.7046 14.9637L5.60528 14.8537L4.88816 14.1356C3.75558 13.0094 3.70534 11.2068 4.74236 10.0204L4.87765 9.87545L5.60377 9.14834C5.85072 8.89963 6.00255 8.57581 6.03664 8.23146L6.04398 8.08278V7.05578L6.0491 6.87885C6.13732 5.35668 7.35648 4.13715 8.87811 4.0489L9.05498 4.04378H10.084C10.4325 4.04378 10.7692 3.9229 11.0363 3.70572L11.1463 3.60682L11.8645 2.88765C12.9908 1.75618 14.7932 1.70636 15.951 2.71645ZM13.0414 3.84256L12.9267 3.94674L12.2054 4.66899C11.6882 5.18258 11.0041 5.48966 10.2818 5.53727L10.084 5.54378H9.05498C8.26742 5.54378 7.6197 6.14793 7.55016 6.91821L7.54398 7.05578V8.08278C7.54398 8.81195 7.27937 9.5131 6.80208 10.0612L6.66668 10.2067L5.93951 10.9349C5.3877 11.4892 5.35557 12.3649 5.84322 12.9589L5.94768 13.0738L6.66694 13.7941C7.18134 14.3097 7.48963 14.995 7.53744 15.7178L7.54398 15.9158V16.9448C7.54398 17.7328 8.14769 18.3801 8.9175 18.4496L9.05498 18.4558H10.084C10.8118 18.4558 11.5135 18.7207 12.0617 19.198L12.2073 19.3335L12.9306 20.0568C13.4888 20.6119 14.3647 20.6442 14.9583 20.1565L15.073 20.0521L15.7939 19.3322C16.3106 18.8179 16.9951 18.5101 17.718 18.4623L17.916 18.4558H18.944C19.7327 18.4558 20.3803 17.8524 20.4498 17.0823L20.456 16.9448V15.9158C20.456 15.1869 20.7208 14.4839 21.1974 13.9383L21.3327 13.7935L22.0602 13.066C22.612 12.511 22.6439 11.6358 22.157 11.0419L22.0527 10.9271L21.3308 10.2052C20.8169 9.68765 20.5101 9.00422 20.4625 8.28094L20.456 8.08278V7.05578C20.456 6.26737 19.8519 5.61951 19.0816 5.54996L18.944 5.54378H17.916C17.1868 5.54378 16.4848 5.27939 15.9379 4.80243L15.7927 4.66711L15.1047 3.97734L15.0649 3.94031C14.5106 3.38855 13.6347 3.35624 13.0414 3.84256ZM17.0964 14.0424C17.1664 14.1124 17.2264 14.1924 17.2664 14.2824C17.2964 14.3724 17.3164 14.4724 17.3164 14.5724C17.3164 14.6734 17.2964 14.7624 17.2664 14.8524C17.2264 14.9424 17.1664 15.0324 17.0964 15.1024C16.9564 15.2424 16.7664 15.3224 16.5664 15.3224C16.3664 15.3224 16.1764 15.2424 16.0364 15.1024C15.9664 15.0324 15.9164 14.9424 15.8764 14.8524C15.8364 14.7624 15.8164 14.6734 15.8164 14.5724C15.8164 14.4724 15.8364 14.3724 15.8764 14.2824C15.9164 14.1924 15.9664 14.1124 16.0364 14.0424C16.3164 13.7624 16.8164 13.7624 17.0964 14.0424ZM17.1 8.89915C17.3663 9.16542 17.3905 9.58208 17.1726 9.87569L17.1 9.95981L11.96 15.0998C11.6671 15.3927 11.1922 15.3927 10.8994 15.0998C10.6331 14.8335 10.6089 14.4169 10.8267 14.1233L10.8994 14.0392L16.0394 8.89915C16.3322 8.60626 16.8071 8.60626 17.1 8.89915ZM11.9563 8.90278C12.0963 9.04178 12.1763 9.23278 12.1763 9.43278C12.1763 9.53278 12.1663 9.62178 12.1263 9.71278C12.0863 9.80278 12.0263 9.88278 11.9563 9.96278C11.8863 10.0328 11.8063 10.0818 11.7163 10.1218C11.6263 10.1618 11.5263 10.1828 11.4263 10.1828C11.3263 10.1828 11.2363 10.1618 11.1463 10.1218C11.0563 10.0818 10.9663 10.0328 10.8963 9.96278C10.8263 9.88278 10.7763 9.80278 10.7363 9.71278C10.6963 9.62178 10.6763 9.53278 10.6763 9.43278C10.6763 9.33178 10.6963 9.23278 10.7363 9.14278C10.7763 9.05278 10.8263 8.96278 10.8963 8.90278C11.1863 8.62178 11.6763 8.62178 11.9563 8.90278Z" fill="#FFF"/>
</g>
<defs>
<feFlood flood-opacity="0" result="BackgroundImageFix"/>
<feColorMatrix in="SourceAlpha" type="matrix" values="0 0 0 0 0 0 0 0 0 0 0 0 0 0 0 0 0 0 127 0" result="hardAlpha"/>
<feOffset dy="4"/>
<feGaussianBlur stdDeviation="2"/>
<feComposite in2="hardAlpha" operator="out"/>
<feColorMatrix type="matrix" values="0 0 0 0 0 0 0 0 0 0 0 0 0 0 0 0 0 0 0.25 0"/>
<feBlend mode="normal" in2="BackgroundImageFix" result="effect1_dropShadow_175_862"/>
<feBlend mode="normal" in="SourceGraphic" in2="effect1_dropShadow_175_862" result="shape"/>
</defs>
</svg>
