<svg width="16" height="15" viewBox="0 0 16 15" fill="none" xmlns="http://www.w3.org/2000/svg">
<rect width="16" height="15" fill="#DCDCDC"/>
<g clip-path="url(#clip0_0_1)">
<rect x="-557" y="-49" width="1194" height="834" rx="16" fill="#252836"/>
<rect x="-15.5" y="-16" width="219" height="47" rx="7.5" fill="#332D3E"/>
<rect x="-15.5" y="-16" width="219" height="47" rx="7.5" stroke="#393C49"/>
<path fill-rule="evenodd" clip-rule="evenodd" d="M2.16667 6.66667C2.16667 3.90917 4.40917 1.66667 7.16667 1.66667C9.92417 1.66667 12.1667 3.90917 12.1667 6.66667C12.1667 9.42417 9.92417 11.6667 7.16667 11.6667C4.40917 11.6667 2.16667 9.42417 2.16667 6.66667ZM15.2558 13.5775L12.4267 10.7475C13.3042 9.61917 13.8333 8.205 13.8333 6.66667C13.8333 2.99083 10.8425 0 7.16667 0C3.49083 0 0.5 2.99083 0.5 6.66667C0.5 10.3425 3.49083 13.3333 7.16667 13.3333C8.705 13.3333 10.1192 12.8042 11.2475 11.9267L14.0775 14.7558C14.24 14.9183 14.4533 15 14.6667 15C14.88 15 15.0933 14.9183 15.2558 14.7558C15.5817 14.43 15.5817 13.9033 15.2558 13.5775Z" fill="white"/>
<mask id="mask0_0_1" style="mask-type:luminance" maskUnits="userSpaceOnUse" x="0" y="0" width="16" height="15">
<path fill-rule="evenodd" clip-rule="evenodd" d="M2.16667 6.66667C2.16667 3.90917 4.40917 1.66667 7.16667 1.66667C9.92417 1.66667 12.1667 3.90917 12.1667 6.66667C12.1667 9.42417 9.92417 11.6667 7.16667 11.6667C4.40917 11.6667 2.16667 9.42417 2.16667 6.66667ZM15.2558 13.5775L12.4267 10.7475C13.3042 9.61917 13.8333 8.205 13.8333 6.66667C13.8333 2.99083 10.8425 0 7.16667 0C3.49083 0 0.5 2.99083 0.5 6.66667C0.5 10.3425 3.49083 13.3333 7.16667 13.3333C8.705 13.3333 10.1192 12.8042 11.2475 11.9267L14.0775 14.7558C14.24 14.9183 14.4533 15 14.6667 15C14.88 15 15.0933 14.9183 15.2558 14.7558C15.5817 14.43 15.5817 13.9033 15.2558 13.5775Z" fill="white"/>
</mask>
<g mask="url(#mask0_0_1)">
<g filter="url(#filter0_d_0_1)">
<rect x="-2" y="-2.5" width="20" height="20" fill="white"/>
</g>
</g>
</g>
<defs>
<filter id="filter0_d_0_1" x="-6" y="-2.5" width="28" height="28" filterUnits="userSpaceOnUse" color-interpolation-filters="sRGB">
<feFlood flood-opacity="0" result="BackgroundImageFix"/>
<feColorMatrix in="SourceAlpha" type="matrix" values="0 0 0 0 0 0 0 0 0 0 0 0 0 0 0 0 0 0 127 0" result="hardAlpha"/>
<feOffset dy="4"/>
<feGaussianBlur stdDeviation="2"/>
<feComposite in2="hardAlpha" operator="out"/>
<feColorMatrix type="matrix" values="0 0 0 0 0 0 0 0 0 0 0 0 0 0 0 0 0 0 0.25 0"/>
<feBlend mode="normal" in2="BackgroundImageFix" result="effect1_dropShadow_0_1"/>
<feBlend mode="normal" in="SourceGraphic" in2="effect1_dropShadow_0_1" result="shape"/>
</filter>
<clipPath id="clip0_0_1">
<rect x="-557" y="-49" width="1194" height="834" rx="16" fill="white"/>
</clipPath>
</defs>
</svg>
